<mxfile host="app.diagrams.net" modified="2024-03-07T01:05:00.899Z" agent="Mozilla/5.0 (Windows NT 10.0; Win64; x64) AppleWebKit/537.36 (KHTML, like Gecko) Chrome/122.0.0.0 Safari/537.36" version="24.0.2" etag="-cRUMv96ipjm2Gw8GHAa" type="device">
  <diagram id="NPbtD9GxfCSPXG-xmOgx" name="Page-1">
    <mxGraphModel dx="1434" dy="-328" grid="1" gridSize="10" guides="1" tooltips="1" connect="1" arrows="1" fold="1" page="1" pageScale="1" pageWidth="850" pageHeight="1100" math="0" shadow="0">
      <root>
        <mxCell id="0" />
        <mxCell id="1" parent="0" />
        <mxCell id="trJT9a1kEyFJH1eMZvoq-78" value="" style="shape=image;verticalLabelPosition=bottom;labelBackgroundColor=default;verticalAlign=top;aspect=fixed;imageAspect=0;image=https://upload.wikimedia.org/wikipedia/en/thumb/c/cc/CQUniversity_Australia_logo.svg/1200px-CQUniversity_Australia_logo.svg.png;" vertex="1" parent="1">
          <mxGeometry x="60" y="1950" width="190.16" height="116.95" as="geometry" />
        </mxCell>
        <mxCell id="trJT9a1kEyFJH1eMZvoq-79" value="Communication for Mental Health&amp;nbsp;" style="text;html=1;align=left;verticalAlign=middle;whiteSpace=wrap;rounded=0;fontFamily=Segoe UI;fontSize=26;fontStyle=1;fontColor=#003666;" vertex="1" parent="1">
          <mxGeometry x="280" y="1970" width="480" height="30" as="geometry" />
        </mxCell>
        <mxCell id="trJT9a1kEyFJH1eMZvoq-80" value="" style="endArrow=none;html=1;rounded=0;strokeColor=#003666;strokeWidth=3;" edge="1" parent="1">
          <mxGeometry width="50" height="50" relative="1" as="geometry">
            <mxPoint x="264" y="2110" as="sourcePoint" />
            <mxPoint x="264" y="1980" as="targetPoint" />
          </mxGeometry>
        </mxCell>
        <mxCell id="trJT9a1kEyFJH1eMZvoq-81" value="&lt;b style=&quot;font-size: 14px;&quot;&gt;Lead Investigator&lt;/b&gt;: Greg Pratt" style="text;html=1;align=left;verticalAlign=middle;whiteSpace=wrap;rounded=0;fontFamily=Segoe UI;fontColor=#003666;fontSize=14;" vertex="1" parent="1">
          <mxGeometry x="285" y="2007" width="270" height="30" as="geometry" />
        </mxCell>
        <mxCell id="trJT9a1kEyFJH1eMZvoq-82" value="&lt;b style=&quot;font-size: 14px;&quot;&gt;Research Team&lt;/b&gt;:&lt;div&gt;&lt;br&gt;&lt;/div&gt;" style="text;html=1;align=left;verticalAlign=middle;whiteSpace=wrap;rounded=0;fontFamily=Segoe UI;fontColor=#003666;fontSize=14;" vertex="1" parent="1">
          <mxGeometry x="285" y="2047" width="125" height="33" as="geometry" />
        </mxCell>
        <mxCell id="trJT9a1kEyFJH1eMZvoq-83" value="THE JAWUN RESEARCH CENTRE" style="text;html=1;align=center;verticalAlign=middle;whiteSpace=wrap;rounded=0;fontStyle=1;fontFamily=Segoe UI;fontColor=#003666;" vertex="1" parent="1">
          <mxGeometry x="50.16" y="2080" width="200" height="30" as="geometry" />
        </mxCell>
        <mxCell id="trJT9a1kEyFJH1eMZvoq-84" value="&lt;div&gt;&lt;div&gt;Julie-Anne Rogers&lt;/div&gt;&lt;div&gt;Kushla Houkamau&lt;br&gt;Corey Jones&lt;/div&gt;&lt;div&gt;Edwin Adrianta Surijah&lt;/div&gt;&lt;/div&gt;" style="text;html=1;align=left;verticalAlign=middle;whiteSpace=wrap;rounded=0;fontFamily=Segoe UI;fontColor=#003666;fontSize=14;" vertex="1" parent="1">
          <mxGeometry x="407" y="2047" width="150" height="63" as="geometry" />
        </mxCell>
      </root>
    </mxGraphModel>
  </diagram>
</mxfile>
